<svg width="1275" height="904" viewBox="0 0 1275 904" fill="none" xmlns="http://www.w3.org/2000/svg">
<g clip-path="url(#clip0_50_30)">
<path d="M0 0H1275V904H637.5H0V0Z" fill="#C3895B"/>
<rect y="608" width="851" height="52" fill="#C37B45"/>
<path d="M591.089 704.988C591.056 705.151 591.04 705.33 591.04 705.525C591.04 705.688 591.024 705.851 590.991 706.014C590.731 706.242 590.503 706.388 590.308 706.453C590.145 706.518 589.998 706.681 589.868 706.941C589.771 707.104 589.722 707.283 589.722 707.479C589.722 707.674 589.673 707.853 589.575 708.016C589.478 708.243 589.233 708.488 588.843 708.748C588.485 708.976 588.224 709.122 588.062 709.188C587.866 709.285 587.655 709.367 587.427 709.432C587.231 709.497 587.036 709.578 586.841 709.676C586.548 709.806 586.304 709.904 586.108 709.969C585.946 710.034 585.767 710.083 585.571 710.115C585.376 710.115 585.164 710.132 584.937 710.164C584.709 710.164 584.416 710.197 584.058 710.262C583.96 710.262 583.895 710.294 583.862 710.359C583.83 710.392 583.765 710.441 583.667 710.506C583.569 710.571 583.423 710.636 583.228 710.701C583.032 710.734 582.739 710.766 582.349 710.799C581.991 710.831 581.714 710.864 581.519 710.896C581.356 710.896 581.079 710.929 580.688 710.994C580.461 711.059 580.249 711.157 580.054 711.287C579.858 711.417 579.647 711.531 579.419 711.629C578.963 711.889 578.621 712.15 578.394 712.41C578.198 712.638 578.035 712.85 577.905 713.045C577.71 713.37 577.612 713.745 577.612 714.168C577.645 714.559 577.58 714.982 577.417 715.438C577.287 715.763 577.075 716.089 576.782 716.414C576.489 716.74 576.278 717.081 576.147 717.439C576.115 717.602 576.115 717.781 576.147 717.977C576.18 718.172 576.18 718.383 576.147 718.611C576.082 719.035 575.936 719.474 575.708 719.93C575.48 720.353 575.285 720.809 575.122 721.297C575.057 721.557 575.024 721.818 575.024 722.078C575.057 722.339 575.041 722.599 574.976 722.859C574.878 723.478 574.731 724.145 574.536 724.861C574.341 725.545 574.162 726.229 573.999 726.912C573.934 727.303 573.901 727.71 573.901 728.133C573.934 728.523 573.901 728.865 573.804 729.158C573.739 729.451 573.608 729.728 573.413 729.988C573.25 730.249 573.088 730.525 572.925 730.818C572.795 731.079 572.697 731.372 572.632 731.697C572.599 731.99 572.681 732.316 572.876 732.674C572.778 733.878 572.616 735.099 572.388 736.336C572.16 737.573 571.867 738.761 571.509 739.9C571.411 740.258 571.248 740.73 571.021 741.316C570.825 741.902 570.63 742.277 570.435 742.439C570.239 742.602 569.979 742.7 569.653 742.732C569.36 742.798 569.051 742.798 568.726 742.732C568.433 742.667 568.156 742.553 567.896 742.391C567.635 742.228 567.456 742.033 567.358 741.805C567.163 741.935 566.984 742.114 566.821 742.342C566.691 742.57 566.496 742.749 566.235 742.879C565.91 743.042 565.568 743.107 565.21 743.074C564.884 743.042 564.543 743.107 564.185 743.27C563.859 743.4 563.566 743.546 563.306 743.709C563.045 743.904 562.785 744.035 562.524 744.1C562.362 744.165 562.199 744.181 562.036 744.148C561.906 744.148 561.776 744.181 561.646 744.246C561.45 744.344 561.304 744.507 561.206 744.734C561.108 744.962 560.962 745.141 560.767 745.271C560.506 745.206 560.213 745.158 559.888 745.125C559.562 745.125 559.318 745.044 559.155 744.881C559.09 744.035 559.22 743.286 559.546 742.635C559.871 742.016 560.116 741.398 560.278 740.779C560.409 740.421 560.49 740.079 560.522 739.754C560.588 739.428 560.653 739.054 560.718 738.631C560.848 738.175 561.011 737.703 561.206 737.215C561.401 736.694 561.548 736.173 561.646 735.652C561.743 735.294 561.792 734.936 561.792 734.578C561.825 734.188 561.906 733.813 562.036 733.455C562.101 733.195 562.264 732.918 562.524 732.625C562.785 732.299 562.98 731.958 563.11 731.6C563.241 731.242 563.354 730.835 563.452 730.379C563.55 729.923 563.68 729.484 563.843 729.061C564.006 728.507 564.233 728.035 564.526 727.645C564.852 727.254 564.998 726.814 564.966 726.326C564.966 726.098 564.917 725.919 564.819 725.789C564.722 725.659 564.673 725.512 564.673 725.35C564.64 725.089 564.673 724.731 564.771 724.275C564.868 723.82 564.966 723.413 565.063 723.055C565.226 722.371 565.389 721.753 565.552 721.199C565.715 720.646 565.877 720.092 566.04 719.539C566.105 719.279 566.154 719.035 566.187 718.807C566.252 718.546 566.317 718.318 566.382 718.123C566.447 717.863 566.545 717.651 566.675 717.488C566.838 717.293 566.951 717.098 567.017 716.902C567.082 716.674 567.131 716.398 567.163 716.072C567.228 715.747 567.31 715.438 567.407 715.145C567.505 714.917 567.603 714.705 567.7 714.51C567.83 714.314 567.912 714.119 567.944 713.924C568.009 713.501 567.944 713.11 567.749 712.752C567.586 712.394 567.505 712.02 567.505 711.629C567.147 711.368 566.724 711.222 566.235 711.189C565.747 711.124 565.275 711.108 564.819 711.141C564.364 711.173 563.957 711.206 563.599 711.238C563.241 711.238 562.834 711.255 562.378 711.287C561.629 711.32 560.978 711.385 560.425 711.482C559.871 711.58 559.334 711.678 558.813 711.775C558.325 711.873 557.821 711.954 557.3 712.02C556.779 712.052 556.193 712.052 555.542 712.02C555.607 711.661 555.656 711.287 555.688 710.896C555.688 710.473 555.737 710.132 555.835 709.871C556.03 709.708 556.226 709.627 556.421 709.627C556.616 709.594 556.828 709.562 557.056 709.529C556.925 709.334 556.86 709.155 556.86 708.992C556.893 708.829 556.925 708.683 556.958 708.553C557.023 708.39 557.088 708.243 557.153 708.113C557.251 707.951 557.316 707.804 557.349 707.674C557.414 707.348 557.43 707.023 557.397 706.697C557.397 706.372 557.544 706.111 557.837 705.916C558.293 705.883 558.7 705.883 559.058 705.916C559.416 705.949 559.757 705.997 560.083 706.062C560.409 706.095 560.734 706.128 561.06 706.16C561.418 706.193 561.825 706.193 562.28 706.16C563.322 706.095 564.168 706.014 564.819 705.916C565.503 705.818 566.333 705.753 567.31 705.721C567.993 705.721 568.644 705.737 569.263 705.77C569.914 705.77 570.516 705.802 571.069 705.867C571.655 705.965 572.078 706.014 572.339 706.014C572.632 706.014 572.892 706.014 573.12 706.014C573.348 705.981 573.592 705.949 573.853 705.916C574.113 705.883 574.504 705.867 575.024 705.867C575.578 705.867 576.099 705.835 576.587 705.77C577.108 705.672 577.645 705.639 578.198 705.672C578.817 705.672 579.24 705.721 579.468 705.818C579.728 705.883 579.94 705.949 580.103 706.014C580.265 706.079 580.444 706.144 580.64 706.209C580.835 706.242 581.193 706.225 581.714 706.16C582.072 706.095 582.3 706.03 582.397 705.965C582.495 705.867 582.723 705.786 583.081 705.721C583.407 705.688 583.732 705.688 584.058 705.721C584.383 705.721 584.725 705.704 585.083 705.672C586.06 705.574 587.036 705.411 588.013 705.184C589.022 704.923 590.047 704.858 591.089 704.988ZM614.087 706.16C614.868 706.844 615.666 707.495 616.479 708.113C617.326 708.699 618.026 709.399 618.579 710.213C618.709 710.376 618.807 710.555 618.872 710.75C618.97 710.945 619.084 711.124 619.214 711.287C619.474 711.645 619.751 712.036 620.044 712.459C620.337 712.882 620.549 713.37 620.679 713.924C620.744 714.314 620.744 714.738 620.679 715.193C620.614 715.617 620.614 716.056 620.679 716.512C620.711 716.707 620.809 716.87 620.972 717C621.167 717.098 621.297 717.277 621.362 717.537C621.46 717.993 621.427 718.449 621.265 718.904C621.134 719.36 621.102 719.881 621.167 720.467C621.167 720.825 621.248 721.134 621.411 721.395C621.606 721.622 621.704 721.883 621.704 722.176C621.737 722.632 621.688 723.087 621.558 723.543C621.427 723.966 621.33 724.389 621.265 724.812C621.004 726.147 620.76 727.286 620.532 728.23C620.337 729.174 619.979 730.135 619.458 731.111C619.165 731.567 618.905 732.039 618.677 732.527C618.481 733.016 618.254 733.455 617.993 733.846C617.31 734.887 616.545 735.848 615.698 736.727C614.852 737.573 614.087 738.436 613.403 739.314C612.166 739.868 610.994 740.405 609.888 740.926C608.781 741.447 607.528 741.935 606.128 742.391C605.802 742.488 605.477 742.602 605.151 742.732C604.858 742.863 604.533 742.977 604.175 743.074C603.752 743.172 603.312 743.237 602.856 743.27C602.401 743.302 601.945 743.351 601.489 743.416C601.164 743.481 600.838 743.562 600.513 743.66C600.187 743.79 599.845 743.872 599.487 743.904C599.129 743.969 598.787 743.953 598.462 743.855C598.169 743.758 597.843 743.676 597.485 743.611C597.225 743.546 596.932 743.53 596.606 743.562C596.313 743.628 596.037 743.644 595.776 743.611C595.614 743.579 595.451 743.497 595.288 743.367C595.125 743.27 594.93 743.172 594.702 743.074C594.507 742.977 594.279 742.911 594.019 742.879C593.791 742.846 593.579 742.798 593.384 742.732C593.123 742.635 592.879 742.505 592.651 742.342C592.424 742.212 592.179 742.114 591.919 742.049C591.724 741.984 591.528 741.951 591.333 741.951C591.138 741.951 590.959 741.919 590.796 741.854C590.568 741.788 590.356 741.658 590.161 741.463C589.998 741.235 589.787 741.04 589.526 740.877C589.266 740.714 589.006 740.584 588.745 740.486C588.485 740.389 588.273 740.275 588.11 740.145C587.655 739.819 587.183 739.363 586.694 738.777C586.239 738.191 585.832 737.573 585.474 736.922C585.181 736.336 584.823 735.734 584.399 735.115C584.009 734.497 583.7 733.846 583.472 733.162C583.407 732.771 583.358 732.348 583.325 731.893C583.293 731.404 583.244 730.916 583.179 730.428C583.114 729.484 583.081 728.507 583.081 727.498C583.114 726.489 583.228 725.382 583.423 724.178C583.488 723.82 583.602 723.478 583.765 723.152C583.927 722.794 584.09 722.436 584.253 722.078C584.383 721.72 584.497 721.362 584.595 721.004C584.725 720.646 584.855 720.304 584.985 719.979C585.148 719.686 585.376 719.409 585.669 719.148C585.962 718.888 586.157 718.579 586.255 718.221C586.353 717.863 586.336 717.537 586.206 717.244C586.108 716.951 586.092 716.609 586.157 716.219C586.255 715.438 586.613 714.754 587.231 714.168C587.882 713.549 588.485 712.915 589.038 712.264C589.754 711.482 590.438 710.831 591.089 710.311C591.74 709.79 592.505 709.204 593.384 708.553C593.514 708.488 593.677 708.423 593.872 708.357C594.1 708.26 594.312 708.146 594.507 708.016C594.67 707.885 594.832 707.755 594.995 707.625C595.158 707.462 595.304 707.348 595.435 707.283C595.728 707.218 596.021 707.218 596.313 707.283C596.639 707.316 596.948 707.299 597.241 707.234C597.502 707.169 597.746 707.039 597.974 706.844C598.234 706.648 598.478 706.437 598.706 706.209C598.934 705.981 599.162 705.753 599.39 705.525C599.618 705.298 599.845 705.118 600.073 704.988C600.171 704.923 600.285 704.891 600.415 704.891C600.578 704.858 600.724 704.809 600.854 704.744C601.766 704.354 602.726 704.223 603.735 704.354C604.777 704.451 605.819 704.533 606.86 704.598C607.642 704.663 608.423 704.728 609.204 704.793C610.018 704.826 610.767 704.939 611.45 705.135C611.906 705.265 612.345 705.46 612.769 705.721C613.192 705.949 613.631 706.095 614.087 706.16ZM605.493 736.434C605.721 736.206 605.949 735.913 606.177 735.555C606.405 735.164 606.649 734.79 606.909 734.432C607.43 733.553 607.918 732.658 608.374 731.746C608.83 730.802 609.285 729.858 609.741 728.914C610.164 727.97 610.522 726.977 610.815 725.936C611.141 724.861 611.483 723.787 611.841 722.713C611.971 722.355 612.166 721.964 612.427 721.541C612.72 721.118 612.866 720.76 612.866 720.467C612.899 720.239 612.834 720.027 612.671 719.832C612.541 719.604 612.459 719.409 612.427 719.246C612.427 719.018 612.427 718.823 612.427 718.66C612.459 718.465 612.459 718.27 612.427 718.074C612.427 717.879 612.394 717.7 612.329 717.537C612.264 717.374 612.199 717.212 612.134 717.049C612.069 716.756 612.02 716.447 611.987 716.121C611.955 715.796 611.938 715.486 611.938 715.193C611.938 714.933 611.955 714.689 611.987 714.461C612.02 714.201 612.02 713.94 611.987 713.68C611.825 712.898 611.483 712.231 610.962 711.678C610.441 711.092 609.92 710.587 609.399 710.164C609.237 710.034 609.106 709.904 609.009 709.773C608.911 709.611 608.797 709.497 608.667 709.432C608.439 709.367 608.179 709.318 607.886 709.285C607.625 709.253 607.397 709.253 607.202 709.285C606.486 709.35 605.835 709.513 605.249 709.773C604.696 710.001 604.061 710.197 603.345 710.359C602.303 711.043 601.18 711.824 599.976 712.703C598.804 713.582 597.843 714.575 597.095 715.682C596.997 715.844 596.916 716.007 596.851 716.17C596.818 716.333 596.753 716.495 596.655 716.658C596.493 716.919 596.313 717.146 596.118 717.342C595.923 717.505 595.744 717.716 595.581 717.977C595.288 718.465 594.995 719.002 594.702 719.588C594.409 720.174 594.214 720.711 594.116 721.199C593.953 721.85 593.856 722.55 593.823 723.299C593.791 724.048 593.726 724.796 593.628 725.545C593.53 726.456 593.416 727.352 593.286 728.23C593.156 729.077 593.123 729.874 593.188 730.623C593.188 730.818 593.221 731.03 593.286 731.258C593.351 731.453 593.4 731.665 593.433 731.893C593.53 732.739 593.628 733.455 593.726 734.041C593.823 734.627 594.084 735.18 594.507 735.701C594.67 735.896 594.897 736.076 595.19 736.238C595.483 736.368 595.728 736.531 595.923 736.727C596.086 736.889 596.2 737.052 596.265 737.215C596.362 737.378 596.493 737.524 596.655 737.654C597.729 738.501 599.259 738.924 601.245 738.924C601.864 738.501 602.58 738.126 603.394 737.801C604.24 737.475 604.94 737.02 605.493 736.434ZM680.688 705.232C680.916 705.623 681.03 705.997 681.03 706.355C680.282 706.551 679.614 706.779 679.028 707.039C678.475 707.267 677.97 707.544 677.515 707.869C677.059 708.162 676.636 708.536 676.245 708.992C675.887 709.415 675.529 709.92 675.171 710.506C674.976 710.799 674.748 711.027 674.487 711.189C674.259 711.352 674.064 711.596 673.901 711.922C673.674 712.345 673.494 712.817 673.364 713.338C673.234 713.826 673.104 714.331 672.974 714.852C672.909 715.014 672.843 715.193 672.778 715.389C672.713 715.551 672.648 715.714 672.583 715.877C672.518 716.235 672.502 716.577 672.534 716.902C672.567 717.228 672.518 717.553 672.388 717.879C672.29 718.139 672.16 718.351 671.997 718.514C671.834 718.676 671.704 718.855 671.606 719.051C671.346 719.507 671.167 720.011 671.069 720.564C671.004 721.118 670.939 721.704 670.874 722.322C670.841 722.518 670.776 722.697 670.679 722.859C670.614 723.022 670.549 723.201 670.483 723.396C670.418 723.657 670.369 723.917 670.337 724.178C670.304 724.406 670.256 724.65 670.19 724.91C669.963 725.561 669.718 726.229 669.458 726.912C669.23 727.563 669.067 728.214 668.97 728.865C668.905 729.223 668.872 729.581 668.872 729.939C668.905 730.265 668.888 730.607 668.823 730.965C668.66 731.909 668.433 732.82 668.14 733.699C667.847 734.546 667.57 735.376 667.31 736.189C667.147 736.775 667.017 737.329 666.919 737.85C666.854 738.338 666.724 738.859 666.528 739.412C666.398 739.705 666.3 739.982 666.235 740.242C666.17 740.47 666.04 740.698 665.845 740.926C665.649 741.154 665.373 741.333 665.015 741.463C664.657 741.593 664.282 741.707 663.892 741.805C663.501 741.902 663.11 741.984 662.72 742.049C662.362 742.146 662.036 742.244 661.743 742.342C661.45 742.472 661.206 742.651 661.011 742.879C660.815 743.139 660.604 743.367 660.376 743.562C660.148 743.79 659.888 743.937 659.595 744.002C659.334 744.1 658.976 744.051 658.521 743.855C658.488 743.465 658.472 743.025 658.472 742.537C658.504 742.049 658.553 741.609 658.618 741.219C658.716 740.665 658.879 740.177 659.106 739.754C659.367 739.331 659.611 738.875 659.839 738.387C660.197 737.54 660.425 736.727 660.522 735.945C660.62 735.164 660.832 734.35 661.157 733.504C661.45 733.309 661.646 733.097 661.743 732.869C661.841 732.641 661.89 732.397 661.89 732.137C661.922 731.844 661.922 731.535 661.89 731.209C661.857 730.883 661.873 730.525 661.938 730.135C661.971 729.744 662.069 729.354 662.231 728.963C662.394 728.572 662.508 728.165 662.573 727.742C662.638 727.384 662.671 727.107 662.671 726.912C662.703 726.684 662.72 726.489 662.72 726.326C662.752 726.163 662.785 726.001 662.817 725.838C662.882 725.643 662.964 725.398 663.062 725.105C663.192 724.812 663.338 724.52 663.501 724.227C663.664 723.934 663.81 723.624 663.94 723.299C664.201 722.452 664.396 721.557 664.526 720.613C664.657 719.669 664.787 718.742 664.917 717.83C664.982 717.277 665.08 716.658 665.21 715.975C665.373 715.291 665.422 714.673 665.356 714.119C665.226 714.119 664.982 714.314 664.624 714.705C664.299 715.096 663.892 715.617 663.403 716.268C662.948 716.886 662.427 717.602 661.841 718.416C661.287 719.197 660.734 720.011 660.181 720.857C659.66 721.671 659.155 722.452 658.667 723.201C658.211 723.917 657.837 724.536 657.544 725.057C657.056 725.35 656.681 725.691 656.421 726.082C656.193 726.44 655.998 726.831 655.835 727.254C655.672 727.677 655.509 728.133 655.347 728.621C655.184 729.077 654.94 729.549 654.614 730.037C654.354 731.046 653.914 732.039 653.296 733.016C652.677 733.992 652.173 734.952 651.782 735.896C651.685 736.157 651.587 736.401 651.489 736.629C651.424 736.824 651.31 737.052 651.147 737.312C650.887 737.964 650.578 738.598 650.22 739.217C649.894 739.803 649.552 740.421 649.194 741.072C648.804 741.723 648.364 742.326 647.876 742.879C647.681 743.139 647.518 743.481 647.388 743.904C647.29 744.327 647.127 744.572 646.899 744.637C646.606 744.702 646.297 744.653 645.972 744.49C645.646 744.36 645.337 744.262 645.044 744.197C644.458 743.351 644.116 742.505 644.019 741.658C644.019 741.43 644.051 741.219 644.116 741.023C644.181 740.796 644.198 740.584 644.165 740.389C644.132 740.031 643.986 739.64 643.726 739.217C643.465 738.761 643.302 738.305 643.237 737.85C643.107 737.296 643.107 736.775 643.237 736.287C643.368 735.766 643.368 735.294 643.237 734.871C643.172 734.676 643.042 734.513 642.847 734.383C642.684 734.22 642.57 734.057 642.505 733.895C642.44 733.667 642.407 733.406 642.407 733.113C642.44 732.82 642.44 732.527 642.407 732.234C642.31 731.681 642.147 731.062 641.919 730.379C641.724 729.695 641.545 729.012 641.382 728.328C641.219 727.84 640.991 727.27 640.698 726.619C640.438 725.968 640.275 725.35 640.21 724.764C640.177 724.438 640.145 724.145 640.112 723.885C640.112 723.592 640.096 723.315 640.063 723.055C639.998 722.469 639.852 721.834 639.624 721.15C639.396 720.467 639.152 719.783 638.892 719.1C638.664 718.416 638.452 717.732 638.257 717.049C638.094 716.365 638.013 715.698 638.013 715.047C637.85 715.112 637.703 715.258 637.573 715.486C637.443 715.714 637.313 715.991 637.183 716.316C637.052 716.642 636.938 716.967 636.841 717.293C636.743 717.618 636.662 717.879 636.597 718.074C636.499 718.237 636.369 718.416 636.206 718.611C636.043 718.807 635.946 719.035 635.913 719.295C635.881 719.425 635.897 719.572 635.962 719.734C636.06 719.897 636.108 720.076 636.108 720.271C636.141 720.792 636.043 721.346 635.815 721.932C635.588 722.485 635.392 723.038 635.229 723.592C635.067 724.243 634.937 724.926 634.839 725.643C634.741 726.326 634.546 727.042 634.253 727.791C633.993 728.507 633.781 729.24 633.618 729.988C633.488 730.704 633.341 731.355 633.179 731.941C633.114 732.365 633.081 732.788 633.081 733.211C633.081 733.634 633.016 733.976 632.886 734.236C632.723 734.562 632.446 734.822 632.056 735.018C631.698 735.213 631.47 735.49 631.372 735.848C631.34 736.531 631.193 737.312 630.933 738.191C630.672 739.07 630.444 739.884 630.249 740.633C630.184 740.926 630.135 741.235 630.103 741.561C630.07 741.854 630.005 742.114 629.907 742.342C629.842 742.602 629.712 742.814 629.517 742.977C629.354 743.172 629.093 743.286 628.735 743.318C628.117 743.383 627.498 743.237 626.88 742.879C626.294 742.521 625.936 742.146 625.806 741.756C625.741 741.495 625.741 741.235 625.806 740.975C625.871 740.682 625.903 740.405 625.903 740.145C625.48 740.405 625.155 740.535 624.927 740.535C624.731 740.535 624.552 740.47 624.39 740.34C624.227 740.177 624.048 739.982 623.853 739.754C623.657 739.493 623.397 739.249 623.071 739.021C622.746 738.761 622.502 738.615 622.339 738.582C622.176 738.517 622.062 738.257 621.997 737.801C621.932 737.312 621.965 736.84 622.095 736.385C622.225 735.929 622.388 735.555 622.583 735.262C622.681 735.066 622.811 734.904 622.974 734.773C623.136 734.611 623.267 734.448 623.364 734.285C623.494 734.025 623.494 733.667 623.364 733.211C623.267 732.723 623.299 732.299 623.462 731.941C623.69 731.453 623.934 730.997 624.194 730.574C624.455 730.118 624.601 729.565 624.634 728.914C624.666 728.654 624.65 728.377 624.585 728.084C624.52 727.791 624.52 727.514 624.585 727.254C624.618 726.993 624.666 726.733 624.731 726.473C624.829 726.18 624.927 725.854 625.024 725.496C625.122 725.008 625.301 724.487 625.562 723.934C625.822 723.38 626.034 722.778 626.196 722.127C626.326 721.867 626.44 721.606 626.538 721.346C626.636 721.053 626.733 720.776 626.831 720.516C627.026 719.962 627.157 719.425 627.222 718.904C627.319 718.351 627.45 717.814 627.612 717.293C627.677 717.098 627.775 716.935 627.905 716.805C628.068 716.642 628.182 716.479 628.247 716.316C628.507 715.763 628.638 715.193 628.638 714.607C628.638 713.989 628.703 713.354 628.833 712.703C628.931 712.085 629.045 711.531 629.175 711.043C629.338 710.522 629.468 710.05 629.565 709.627C629.663 709.171 629.679 708.748 629.614 708.357C629.582 707.967 629.419 707.56 629.126 707.137C628.963 706.909 628.784 706.746 628.589 706.648C628.426 706.551 628.328 706.421 628.296 706.258C628.296 705.867 628.442 705.656 628.735 705.623C629.061 705.558 629.419 705.574 629.81 705.672C630.2 705.77 630.575 705.9 630.933 706.062C631.323 706.193 631.567 706.274 631.665 706.307C631.828 706.339 632.023 706.339 632.251 706.307C632.479 706.274 632.723 706.29 632.983 706.355C633.276 706.388 633.569 706.437 633.862 706.502C634.155 706.567 634.416 706.616 634.644 706.648C635.164 706.648 635.539 706.648 635.767 706.648C635.994 706.616 636.353 706.583 636.841 706.551C637.297 706.518 637.85 706.518 638.501 706.551C639.185 706.583 639.771 706.567 640.259 706.502C640.682 706.469 641.203 706.404 641.821 706.307C642.472 706.209 643.091 706.128 643.677 706.062C644.295 705.997 644.832 705.997 645.288 706.062C645.776 706.095 646.053 706.258 646.118 706.551C646.216 706.909 646.118 707.234 645.825 707.527C645.565 707.788 645.402 708.064 645.337 708.357C645.272 709.139 645.19 710.018 645.093 710.994C644.995 711.938 644.995 712.736 645.093 713.387C645.158 713.745 645.174 714.103 645.142 714.461C645.109 714.786 645.142 715.079 645.239 715.34C645.435 716.056 645.581 716.74 645.679 717.391C645.711 717.781 645.858 718.156 646.118 718.514C646.411 718.839 646.541 719.181 646.509 719.539C646.476 719.995 646.558 720.467 646.753 720.955C646.981 721.411 647.111 721.899 647.144 722.42C647.209 722.941 647.241 723.478 647.241 724.031C647.274 724.585 647.453 725.089 647.778 725.545C648.104 725.285 648.299 724.959 648.364 724.568C648.462 724.178 648.592 723.803 648.755 723.445C648.82 723.283 648.918 723.136 649.048 723.006C649.211 722.843 649.357 722.68 649.487 722.518C649.845 721.769 650.285 720.988 650.806 720.174C651.359 719.327 651.831 718.481 652.222 717.635C652.645 716.821 653.052 716.007 653.442 715.193C653.833 714.347 654.207 713.501 654.565 712.654C654.631 712.524 654.744 712.378 654.907 712.215C655.103 712.052 655.298 711.889 655.493 711.727C655.688 711.564 655.868 711.417 656.03 711.287C656.226 711.124 656.372 710.962 656.47 710.799C656.958 709.887 657.365 709.106 657.69 708.455C658.049 707.771 658.309 706.925 658.472 705.916C659.058 705.883 659.611 705.9 660.132 705.965C660.685 706.03 661.287 706.111 661.938 706.209C662.199 706.274 662.427 706.355 662.622 706.453C662.85 706.551 663.078 706.616 663.306 706.648C663.761 706.714 664.119 706.73 664.38 706.697C664.673 706.665 664.917 706.632 665.112 706.6C665.34 706.535 665.552 706.502 665.747 706.502C665.975 706.469 666.284 706.518 666.675 706.648C667.782 706.648 668.921 706.567 670.093 706.404C671.265 706.242 672.437 706.079 673.608 705.916C674.813 705.721 676.001 705.558 677.173 705.428C678.377 705.298 679.549 705.232 680.688 705.232ZM683.179 740.779C682.528 740.779 682.039 740.926 681.714 741.219C681.421 741.479 681.209 741.821 681.079 742.244C680.688 742.146 680.233 742.13 679.712 742.195C679.224 742.26 678.719 742.326 678.198 742.391C677.71 742.456 677.222 742.488 676.733 742.488C676.278 742.521 675.887 742.439 675.562 742.244C675.399 742.146 675.269 742.016 675.171 741.854C675.073 741.658 674.959 741.479 674.829 741.316C674.699 741.121 674.569 740.942 674.438 740.779C674.276 740.617 674.178 740.454 674.146 740.291C674.08 740.096 674.129 739.819 674.292 739.461C674.455 739.07 674.601 738.794 674.731 738.631C674.862 738.533 675.008 738.452 675.171 738.387C675.366 738.322 675.545 738.224 675.708 738.094C676.164 737.736 676.489 737.296 676.685 736.775C676.912 736.222 677.108 735.783 677.271 735.457C677.498 735.294 677.759 735.132 678.052 734.969C678.377 734.773 678.507 734.529 678.442 734.236C678.149 734.074 677.808 734.008 677.417 734.041C677.026 734.041 676.636 734.025 676.245 733.992C675.594 733.992 674.943 733.943 674.292 733.846C673.641 733.748 673.055 733.667 672.534 733.602C671.688 733.439 670.955 733.048 670.337 732.43C669.686 731.811 669.409 731.03 669.507 730.086C669.735 729.988 669.995 729.939 670.288 729.939C670.549 729.939 670.841 729.956 671.167 729.988C671.46 730.021 671.769 730.053 672.095 730.086C672.388 730.086 672.664 730.037 672.925 729.939C673.218 730.135 673.494 730.232 673.755 730.232C673.983 730.232 674.211 730.184 674.438 730.086C674.634 729.988 674.829 729.891 675.024 729.793C675.22 729.663 675.399 729.581 675.562 729.549C675.724 729.516 675.871 729.516 676.001 729.549C676.131 729.581 676.278 729.598 676.44 729.598C676.701 729.598 676.961 729.565 677.222 729.5C677.482 729.402 677.791 729.321 678.149 729.256C678.638 729.191 679.142 729.158 679.663 729.158C680.184 729.126 680.623 729.028 680.981 728.865C681.209 728.768 681.47 728.605 681.763 728.377C682.056 728.117 682.267 727.889 682.397 727.693C682.463 727.531 682.479 727.384 682.446 727.254C682.446 727.091 682.479 726.928 682.544 726.766C682.707 726.212 682.983 725.724 683.374 725.301C683.797 724.878 684.139 724.406 684.399 723.885C684.497 723.624 684.562 723.429 684.595 723.299C684.66 723.169 684.709 723.055 684.741 722.957C684.774 722.859 684.806 722.745 684.839 722.615C684.904 722.485 685.018 722.29 685.181 722.029C685.474 721.574 685.767 721.134 686.06 720.711C686.385 720.288 686.759 719.881 687.183 719.49C687.183 719.295 687.215 719.132 687.28 719.002C687.345 718.839 687.41 718.676 687.476 718.514C688.354 718.156 689.071 717.684 689.624 717.098C690.177 716.512 690.731 715.893 691.284 715.242C691.252 714.917 691.317 714.689 691.479 714.559C691.642 714.396 691.724 714.152 691.724 713.826C691.724 713.663 691.659 713.484 691.528 713.289C691.431 713.061 691.382 712.833 691.382 712.605C691.382 712.345 691.479 712.085 691.675 711.824C691.903 711.531 692.098 711.271 692.261 711.043C692.521 710.783 692.716 710.522 692.847 710.262C693.009 710.001 693.172 709.757 693.335 709.529C693.595 709.236 693.856 708.976 694.116 708.748C694.409 708.52 694.686 708.243 694.946 707.918C695.076 707.723 695.174 707.511 695.239 707.283C695.337 707.023 695.483 706.827 695.679 706.697C695.972 706.502 696.379 706.388 696.899 706.355C697.42 706.323 697.941 706.29 698.462 706.258C699.08 706.225 699.748 706.16 700.464 706.062C701.213 705.932 701.945 705.802 702.661 705.672C703.41 705.542 704.126 705.428 704.81 705.33C705.526 705.2 706.177 705.118 706.763 705.086C707.349 705.021 707.902 705.005 708.423 705.037C708.976 705.07 709.416 705.021 709.741 704.891C710.197 705.281 710.653 705.672 711.108 706.062C711.597 706.421 712.052 706.811 712.476 707.234C712.606 707.885 712.72 708.488 712.817 709.041C712.915 709.594 712.931 710.148 712.866 710.701C712.801 710.962 712.687 711.206 712.524 711.434C712.394 711.661 712.345 711.922 712.378 712.215C712.378 712.703 712.524 713.191 712.817 713.68C713.11 714.135 713.322 714.64 713.452 715.193C713.485 715.454 713.436 715.714 713.306 715.975C713.208 716.202 713.143 716.447 713.11 716.707C713.078 716.967 713.094 717.26 713.159 717.586C713.224 717.879 713.289 718.188 713.354 718.514C713.354 718.904 713.338 719.295 713.306 719.686C713.273 720.076 713.289 720.483 713.354 720.906C713.42 721.329 713.501 721.769 713.599 722.225C713.696 722.648 713.729 723.087 713.696 723.543C713.631 723.999 713.534 724.422 713.403 724.812C713.306 725.203 713.257 725.61 713.257 726.033C713.224 726.619 713.257 727.189 713.354 727.742C713.452 728.263 713.42 728.8 713.257 729.354C713.517 729.679 713.647 730.005 713.647 730.33C713.68 730.656 713.664 730.981 713.599 731.307C713.534 731.632 713.468 731.974 713.403 732.332C713.338 732.658 713.371 732.999 713.501 733.357C713.566 733.585 713.696 733.797 713.892 733.992C714.087 734.155 714.217 734.367 714.282 734.627C714.38 734.952 714.429 735.359 714.429 735.848C714.461 736.303 714.478 736.743 714.478 737.166C714.51 738.208 714.412 739.135 714.185 739.949C713.989 740.763 713.875 741.642 713.843 742.586C713.843 743.009 713.826 743.481 713.794 744.002C713.794 744.523 713.713 744.93 713.55 745.223C713.387 745.418 713.127 745.613 712.769 745.809C712.41 746.036 712.101 746.167 711.841 746.199C711.353 746.232 710.783 746.102 710.132 745.809C709.513 745.516 709.041 745.206 708.716 744.881C708.423 744.555 708.146 744.197 707.886 743.807C707.658 743.416 707.414 743.009 707.153 742.586C706.925 742.163 706.681 741.772 706.421 741.414C706.16 741.023 705.868 740.698 705.542 740.438C705.379 740.34 705.2 740.242 705.005 740.145C704.81 740.047 704.663 739.933 704.565 739.803C704.37 739.477 704.256 739.119 704.224 738.729C704.224 738.305 704.24 737.882 704.272 737.459C704.338 737.003 704.386 736.564 704.419 736.141C704.484 735.717 704.468 735.343 704.37 735.018C704.272 734.692 704.142 734.448 703.979 734.285C703.817 734.09 703.605 733.96 703.345 733.895C703.117 733.797 702.84 733.748 702.515 733.748C702.222 733.715 701.864 733.683 701.44 733.65C699.91 733.553 698.332 733.455 696.704 733.357C695.076 733.26 693.416 733.227 691.724 733.26C691.366 733.26 691.105 733.276 690.942 733.309C690.78 733.341 690.633 733.374 690.503 733.406C690.373 733.406 690.243 733.423 690.112 733.455C689.982 733.488 689.771 733.504 689.478 733.504C688.826 733.536 688.241 733.585 687.72 733.65C687.199 733.683 686.743 733.846 686.353 734.139C686.125 734.301 685.881 734.627 685.62 735.115C685.36 735.604 685.164 735.978 685.034 736.238C684.871 736.629 684.725 737.036 684.595 737.459C684.497 737.882 684.383 738.305 684.253 738.729C684.155 739.119 684.025 739.493 683.862 739.852C683.7 740.21 683.472 740.519 683.179 740.779ZM695.581 727.889C696.688 727.856 697.746 727.84 698.755 727.84C699.797 727.807 700.773 727.758 701.685 727.693C701.815 727.628 701.929 727.579 702.026 727.547C702.157 727.514 702.352 727.531 702.612 727.596C702.612 727.433 702.694 727.352 702.856 727.352C703.019 727.319 703.149 727.27 703.247 727.205C703.377 726.977 703.442 726.798 703.442 726.668C703.442 726.505 703.41 726.375 703.345 726.277C703.312 726.147 703.247 726.017 703.149 725.887C703.084 725.724 703.052 725.512 703.052 725.252C703.052 724.992 703.084 724.731 703.149 724.471C703.247 724.178 703.312 723.885 703.345 723.592C703.377 723.364 703.345 723.12 703.247 722.859C703.182 722.599 703.166 722.339 703.198 722.078C703.231 721.85 703.328 721.655 703.491 721.492C703.654 721.297 703.735 721.085 703.735 720.857C703.735 720.727 703.703 720.581 703.638 720.418C703.605 720.255 703.573 720.092 703.54 719.93C703.507 719.702 703.491 719.474 703.491 719.246C703.524 719.018 703.507 718.823 703.442 718.66C703.377 718.4 703.215 718.156 702.954 717.928C702.694 717.7 702.531 717.456 702.466 717.195C702.368 716.87 702.352 716.512 702.417 716.121C702.515 715.698 702.563 715.291 702.563 714.9C702.531 714.347 702.482 713.842 702.417 713.387C702.352 712.931 702.189 712.475 701.929 712.02C701.571 711.824 701.294 711.759 701.099 711.824C700.936 711.857 700.789 711.971 700.659 712.166C700.562 712.329 700.464 712.524 700.366 712.752C700.301 712.98 700.171 713.175 699.976 713.338C699.097 714.119 698.413 714.917 697.925 715.73C697.437 716.512 696.834 717.374 696.118 718.318C695.825 718.676 695.516 719.035 695.19 719.393C694.897 719.751 694.621 720.141 694.36 720.564C694.132 720.988 693.953 721.427 693.823 721.883C693.693 722.339 693.66 722.843 693.726 723.396C693.563 723.657 693.416 723.852 693.286 723.982C693.188 724.08 693.075 724.178 692.944 724.275C692.814 724.373 692.668 724.487 692.505 724.617C692.375 724.747 692.212 724.926 692.017 725.154C691.659 725.61 691.268 726.082 690.845 726.57C690.422 727.026 690.145 727.531 690.015 728.084C690.601 728.247 691.105 728.328 691.528 728.328C691.951 728.328 692.358 728.312 692.749 728.279C693.172 728.214 693.595 728.149 694.019 728.084C694.474 727.986 694.995 727.921 695.581 727.889Z" fill="#C3895B"/>
</g>
<defs>
<clipPath id="clip0_50_30">
<rect width="1275" height="904" fill="white"/>
</clipPath>
</defs>
</svg>
